<mxfile host="drawio-plugin" modified="2021-12-20T02:03:38.690Z" agent="5.0 (Macintosh; Intel Mac OS X 10_15_4) AppleWebKit/537.36 (KHTML, like Gecko) Chrome/89.0.4389.114 Safari/537.36" etag="UZE2iW1B_GDVf6qnJHhX" version="14.7.4" type="embed"><diagram id="23iRSUPoRavnBvh4doch" name="Page-1"><mxGraphModel dx="1465" dy="813" grid="1" gridSize="10" guides="1" tooltips="1" connect="1" arrows="1" fold="1" page="1" pageScale="1" pageWidth="1169" pageHeight="827" math="0" shadow="0"><root><mxCell id="0"/><mxCell id="1" parent="0"/><mxCell id="2" value="&lt;b&gt;Google &lt;/b&gt;Cloud Platform" style="fillColor=#F6F6F6;strokeColor=none;shadow=0;gradientColor=none;fontSize=14;align=left;spacing=10;fontColor=#717171;9E9E9E;verticalAlign=top;spacingTop=-4;fontStyle=0;spacingLeft=40;html=1;" vertex="1" parent="1"><mxGeometry x="110" y="80" width="1530" height="660" as="geometry"/></mxCell><mxCell id="3" value="asm-advent2021 cluster" style="sketch=0;points=[[0,0,0],[0.25,0,0],[0.5,0,0],[0.75,0,0],[1,0,0],[1,0.25,0],[1,0.5,0],[1,0.75,0],[1,1,0],[0.75,1,0],[0.5,1,0],[0.25,1,0],[0,1,0],[0,0.75,0],[0,0.5,0],[0,0.25,0]];rounded=1;absoluteArcSize=1;arcSize=2;html=1;strokeColor=none;gradientColor=none;shadow=0;dashed=0;fontSize=12;fontColor=#9E9E9E;align=left;verticalAlign=top;spacing=10;spacingTop=-4;fillColor=#FCE4EC;" vertex="1" parent="2"><mxGeometry x="190" y="41.25" width="1330" height="536.25" as="geometry"/></mxCell><mxCell id="4" value="" style="shape=mxgraph.gcp2.google_cloud_platform;fillColor=#F6F6F6;strokeColor=none;shadow=0;gradientColor=none;" vertex="1" parent="2"><mxGeometry width="23" height="20" relative="1" as="geometry"><mxPoint x="20" y="10" as="offset"/></mxGeometry></mxCell><mxCell id="5" value="" style="strokeColor=#dddddd;shadow=1;strokeWidth=1;rounded=1;absoluteArcSize=1;arcSize=2;" vertex="1" parent="2"><mxGeometry x="30" y="590" width="150" height="60" as="geometry"/></mxCell><mxCell id="6" value="&lt;font color=&quot;#000000&quot;&gt;asm-adevent2021&lt;/font&gt;&lt;br&gt;Cloud Endpoints" style="dashed=0;connectable=0;html=1;fillColor=#5184F3;strokeColor=none;shape=mxgraph.gcp2.hexIcon;prIcon=cloud_endpoints;part=1;labelPosition=right;verticalLabelPosition=middle;align=left;verticalAlign=middle;spacingLeft=5;fontColor=#999999;fontSize=12;" vertex="1" parent="5"><mxGeometry y="0.5" width="44" height="39" relative="1" as="geometry"><mxPoint x="5" y="-19.5" as="offset"/></mxGeometry></mxCell><mxCell id="7" value="" style="strokeColor=#dddddd;shadow=1;strokeWidth=1;rounded=1;absoluteArcSize=1;arcSize=2;" vertex="1" parent="2"><mxGeometry x="30" y="260" width="180" height="60" as="geometry"/></mxCell><mxCell id="8" value="&lt;font color=&quot;#000000&quot;&gt;Name&lt;/font&gt;&lt;br&gt;Cloud Load Balancing" style="dashed=0;connectable=0;html=1;fillColor=#5184F3;strokeColor=none;shape=mxgraph.gcp2.hexIcon;prIcon=cloud_load_balancing;part=1;labelPosition=right;verticalLabelPosition=middle;align=left;verticalAlign=middle;spacingLeft=5;fontColor=#999999;fontSize=12;" vertex="1" parent="7"><mxGeometry y="0.5" width="44" height="39" relative="1" as="geometry"><mxPoint x="5" y="-19.5" as="offset"/></mxGeometry></mxCell><mxCell id="9" value="" style="rounded=0;whiteSpace=wrap;html=1;strokeColor=#000000;align=left;verticalAlign=middle;" vertex="1" parent="1"><mxGeometry x="340" y="250" width="190" height="210" as="geometry"/></mxCell><mxCell id="10" value="" style="rounded=0;whiteSpace=wrap;html=1;strokeColor=#000000;align=left;verticalAlign=middle;" vertex="1" parent="1"><mxGeometry x="560" y="140" width="600" height="490" as="geometry"/></mxCell><mxCell id="11" value="" style="rounded=0;whiteSpace=wrap;html=1;strokeColor=#000000;align=left;verticalAlign=middle;" vertex="1" parent="1"><mxGeometry x="1200" y="134" width="420" height="240" as="geometry"/></mxCell><mxCell id="12" value="Istio-ingressgateway&lt;br&gt;" style="points=[[0,0,0],[0.25,0,0],[0.5,0,0],[0.75,0,0],[1,0,0],[1,0.25,0],[1,0.5,0],[1,0.75,0],[1,1,0],[0.75,1,0],[0.5,1,0],[0.25,1,0],[0,1,0],[0,0.75,0],[0,0.5,0],[0,0.25,0]];rounded=1;absoluteArcSize=1;arcSize=2;html=1;strokeColor=none;gradientColor=none;shadow=0;dashed=0;fontSize=12;fontColor=#9E9E9E;align=left;verticalAlign=top;spacing=10;spacingTop=-4;fillColor=#F3E5F5;" vertex="1" parent="1"><mxGeometry x="360" y="300" width="160" height="140" as="geometry"/></mxCell><mxCell id="13" value="https(port:443)" style="points=[[0,0,0],[0.25,0,0],[0.5,0,0],[0.75,0,0],[1,0,0],[1,0.25,0],[1,0.5,0],[1,0.75,0],[1,1,0],[0.75,1,0],[0.5,1,0],[0.25,1,0],[0,1,0],[0,0.75,0],[0,0.5,0],[0,0.25,0]];rounded=1;absoluteArcSize=1;arcSize=2;html=1;gradientColor=none;shadow=0;dashed=0;fontSize=12;fontColor=#9E9E9E;align=center;verticalAlign=middle;spacing=10;spacingTop=-4;fillColor=#EFEBE9;" vertex="1" parent="1"><mxGeometry x="380" y="355" width="120" height="30" as="geometry"/></mxCell><mxCell id="14" value="" style="edgeStyle=orthogonalEdgeStyle;fontSize=12;html=1;endArrow=blockThin;endFill=1;rounded=0;strokeWidth=2;endSize=4;startSize=4;dashed=0;strokeColor=#4284F3;entryX=0;entryY=0.5;entryDx=0;entryDy=0;entryPerimeter=0;exitX=1;exitY=0.5;exitDx=0;exitDy=0;" edge="1" parent="1" source="7" target="13"><mxGeometry width="100" relative="1" as="geometry"><mxPoint x="170" y="350" as="sourcePoint"/><mxPoint x="270" y="350" as="targetPoint"/></mxGeometry></mxCell><mxCell id="15" value="app-service" style="points=[[0,0,0],[0.25,0,0],[0.5,0,0],[0.75,0,0],[1,0,0],[1,0.25,0],[1,0.5,0],[1,0.75,0],[1,1,0],[0.75,1,0],[0.5,1,0],[0.25,1,0],[0,1,0],[0,0.75,0],[0,0.5,0],[0,0.25,0]];rounded=1;absoluteArcSize=1;arcSize=2;html=1;strokeColor=none;gradientColor=none;shadow=0;dashed=0;fontSize=12;fontColor=#9E9E9E;align=left;verticalAlign=top;spacing=10;spacingTop=-4;fillColor=#F1F8E9;" vertex="1" parent="1"><mxGeometry x="1240" y="185" width="160" height="140" as="geometry"/></mxCell><mxCell id="16" value="app-pod" style="points=[[0,0,0],[0.25,0,0],[0.5,0,0],[0.75,0,0],[1,0,0],[1,0.25,0],[1,0.5,0],[1,0.75,0],[1,1,0],[0.75,1,0],[0.5,1,0],[0.25,1,0],[0,1,0],[0,0.75,0],[0,0.5,0],[0,0.25,0]];rounded=1;absoluteArcSize=1;arcSize=2;html=1;strokeColor=none;gradientColor=none;shadow=0;dashed=0;fontSize=12;fontColor=#9E9E9E;align=left;verticalAlign=top;spacing=10;spacingTop=-4;fillColor=#E1F5FE;" vertex="1" parent="1"><mxGeometry x="1440" y="185" width="160" height="140" as="geometry"/></mxCell><mxCell id="17" value="gRPC(port:8080)" style="points=[[0,0,0],[0.25,0,0],[0.5,0,0],[0.75,0,0],[1,0,0],[1,0.25,0],[1,0.5,0],[1,0.75,0],[1,1,0],[0.75,1,0],[0.5,1,0],[0.25,1,0],[0,1,0],[0,0.75,0],[0,0.5,0],[0,0.25,0]];rounded=1;absoluteArcSize=1;arcSize=2;html=1;gradientColor=none;shadow=0;dashed=0;fontSize=12;fontColor=#9E9E9E;align=center;verticalAlign=middle;spacing=10;spacingTop=-4;fillColor=#EFEBE9;" vertex="1" parent="1"><mxGeometry x="1260" y="243" width="120" height="30" as="geometry"/></mxCell><mxCell id="18" value="50051" style="points=[[0,0,0],[0.25,0,0],[0.5,0,0],[0.75,0,0],[1,0,0],[1,0.25,0],[1,0.5,0],[1,0.75,0],[1,1,0],[0.75,1,0],[0.5,1,0],[0.25,1,0],[0,1,0],[0,0.75,0],[0,0.5,0],[0,0.25,0]];rounded=1;absoluteArcSize=1;arcSize=2;html=1;gradientColor=none;shadow=0;dashed=0;fontSize=12;fontColor=#9E9E9E;align=center;verticalAlign=middle;spacing=10;spacingTop=-4;fillColor=#EFEBE9;" vertex="1" parent="1"><mxGeometry x="1460" y="243" width="120" height="30" as="geometry"/></mxCell><mxCell id="19" value="" style="edgeStyle=orthogonalEdgeStyle;fontSize=12;html=1;endArrow=blockThin;endFill=1;rounded=0;strokeWidth=2;endSize=4;startSize=4;dashed=0;strokeColor=#4284F3;entryX=0;entryY=0.5;entryDx=0;entryDy=0;entryPerimeter=0;" edge="1" parent="1" source="17" target="18"><mxGeometry width="100" relative="1" as="geometry"><mxPoint x="1110" y="214" as="sourcePoint"/><mxPoint x="1230" y="214" as="targetPoint"/></mxGeometry></mxCell><mxCell id="20" value="gateway&lt;br&gt;&lt;br&gt;" style="points=[[0,0,0],[0.25,0,0],[0.5,0,0],[0.75,0,0],[1,0,0],[1,0.25,0],[1,0.5,0],[1,0.75,0],[1,1,0],[0.75,1,0],[0.5,1,0],[0.25,1,0],[0,1,0],[0,0.75,0],[0,0.5,0],[0,0.25,0]];rounded=1;absoluteArcSize=1;arcSize=2;html=1;strokeColor=none;gradientColor=none;shadow=0;dashed=0;fontSize=12;fontColor=#9E9E9E;align=left;verticalAlign=top;spacing=10;spacingTop=-4;fillColor=#FFEBEE;" vertex="1" parent="1"><mxGeometry x="610" y="290" width="160" height="160" as="geometry"/></mxCell><mxCell id="21" value="&lt;span&gt;name: https&lt;/span&gt;&lt;br&gt;&lt;span&gt;port: 8443&lt;/span&gt;&lt;br&gt;&lt;span&gt;protocol: HTTPS&lt;/span&gt;" style="points=[[0,0,0],[0.25,0,0],[0.5,0,0],[0.75,0,0],[1,0,0],[1,0.25,0],[1,0.5,0],[1,0.75,0],[1,1,0],[0.75,1,0],[0.5,1,0],[0.25,1,0],[0,1,0],[0,0.75,0],[0,0.5,0],[0,0.25,0]];rounded=1;absoluteArcSize=1;arcSize=2;html=1;gradientColor=none;shadow=0;dashed=0;fontSize=12;fontColor=#9E9E9E;align=left;verticalAlign=middle;spacing=10;spacingTop=-4;fillColor=#EFEBE9;" vertex="1" parent="1"><mxGeometry x="630" y="340" width="120" height="60" as="geometry"/></mxCell><mxCell id="22" value="VirtualService" style="points=[[0,0,0],[0.25,0,0],[0.5,0,0],[0.75,0,0],[1,0,0],[1,0.25,0],[1,0.5,0],[1,0.75,0],[1,1,0],[0.75,1,0],[0.5,1,0],[0.25,1,0],[0,1,0],[0,0.75,0],[0,0.5,0],[0,0.25,0]];rounded=1;absoluteArcSize=1;arcSize=2;html=1;strokeColor=none;gradientColor=none;shadow=0;dashed=0;fontSize=12;fontColor=#9E9E9E;align=left;verticalAlign=top;spacing=10;spacingTop=-4;fillColor=#FFF8E1;" vertex="1" parent="1"><mxGeometry x="850" y="170" width="280" height="171" as="geometry"/></mxCell><mxCell id="23" value="headers&lt;br&gt;&lt;font color=&quot;#ff0000&quot;&gt;&amp;nbsp; env: env1&lt;br&gt;&lt;/font&gt;route: &lt;br&gt;&amp;nbsp; destination: app-service.env1.svc.cluster.local&lt;br&gt;&amp;nbsp; port: 8080" style="points=[[0,0,0],[0.25,0,0],[0.5,0,0],[0.75,0,0],[1,0,0],[1,0.25,0],[1,0.5,0],[1,0.75,0],[1,1,0],[0.75,1,0],[0.5,1,0],[0.25,1,0],[0,1,0],[0,0.75,0],[0,0.5,0],[0,0.25,0]];rounded=1;absoluteArcSize=1;arcSize=2;html=1;gradientColor=none;shadow=0;dashed=0;fontSize=12;fontColor=#9E9E9E;align=left;verticalAlign=middle;spacing=10;spacingTop=-4;fillColor=#EFEBE9;" vertex="1" parent="1"><mxGeometry x="860" y="209" width="260" height="110" as="geometry"/></mxCell><mxCell id="24" value="" style="edgeStyle=orthogonalEdgeStyle;fontSize=12;html=1;endArrow=blockThin;endFill=1;rounded=0;strokeWidth=2;endSize=4;startSize=4;dashed=0;strokeColor=#4284F3;entryX=0;entryY=0.5;entryDx=0;entryDy=0;entryPerimeter=0;exitX=1;exitY=0.5;exitDx=0;exitDy=0;exitPerimeter=0;" edge="1" parent="1" source="12" target="20"><mxGeometry width="100" relative="1" as="geometry"><mxPoint x="560" y="190" as="sourcePoint"/><mxPoint x="430" y="235" as="targetPoint"/></mxGeometry></mxCell><mxCell id="25" value="" style="edgeStyle=orthogonalEdgeStyle;fontSize=12;html=1;endArrow=blockThin;endFill=1;rounded=0;strokeWidth=2;endSize=4;startSize=4;dashed=0;strokeColor=#4284F3;entryX=0;entryY=0.5;entryDx=0;entryDy=0;entryPerimeter=0;exitX=1;exitY=0.25;exitDx=0;exitDy=0;exitPerimeter=0;" edge="1" parent="1" source="20" target="22"><mxGeometry width="100" relative="1" as="geometry"><mxPoint x="570" y="200" as="sourcePoint"/><mxPoint x="650" y="200" as="targetPoint"/></mxGeometry></mxCell><mxCell id="26" value="" style="edgeStyle=orthogonalEdgeStyle;fontSize=12;html=1;endArrow=blockThin;endFill=1;rounded=0;strokeWidth=2;endSize=4;startSize=4;dashed=0;strokeColor=#4284F3;entryX=0;entryY=0.5;entryDx=0;entryDy=0;entryPerimeter=0;exitX=1;exitY=0.5;exitDx=0;exitDy=0;exitPerimeter=0;" edge="1" parent="1" source="22" target="15"><mxGeometry width="100" relative="1" as="geometry"><mxPoint x="570" y="200" as="sourcePoint"/><mxPoint x="650" y="211" as="targetPoint"/></mxGeometry></mxCell><mxCell id="27" value="env1" style="text;html=1;strokeColor=none;fillColor=none;align=center;verticalAlign=middle;whiteSpace=wrap;rounded=0;" vertex="1" parent="1"><mxGeometry x="1210" y="144" width="40" height="20" as="geometry"/></mxCell><mxCell id="28" value="" style="rounded=0;whiteSpace=wrap;html=1;strokeColor=#000000;align=left;verticalAlign=middle;" vertex="1" parent="1"><mxGeometry x="1200" y="400" width="420" height="230" as="geometry"/></mxCell><mxCell id="29" value="app-service" style="points=[[0,0,0],[0.25,0,0],[0.5,0,0],[0.75,0,0],[1,0,0],[1,0.25,0],[1,0.5,0],[1,0.75,0],[1,1,0],[0.75,1,0],[0.5,1,0],[0.25,1,0],[0,1,0],[0,0.75,0],[0,0.5,0],[0,0.25,0]];rounded=1;absoluteArcSize=1;arcSize=2;html=1;strokeColor=none;gradientColor=none;shadow=0;dashed=0;fontSize=12;fontColor=#9E9E9E;align=left;verticalAlign=top;spacing=10;spacingTop=-4;fillColor=#F1F8E9;" vertex="1" parent="1"><mxGeometry x="1240" y="455.5" width="160" height="140" as="geometry"/></mxCell><mxCell id="30" value="app-pod" style="points=[[0,0,0],[0.25,0,0],[0.5,0,0],[0.75,0,0],[1,0,0],[1,0.25,0],[1,0.5,0],[1,0.75,0],[1,1,0],[0.75,1,0],[0.5,1,0],[0.25,1,0],[0,1,0],[0,0.75,0],[0,0.5,0],[0,0.25,0]];rounded=1;absoluteArcSize=1;arcSize=2;html=1;strokeColor=none;gradientColor=none;shadow=0;dashed=0;fontSize=12;fontColor=#9E9E9E;align=left;verticalAlign=top;spacing=10;spacingTop=-4;fillColor=#E1F5FE;" vertex="1" parent="1"><mxGeometry x="1440" y="455.5" width="160" height="140" as="geometry"/></mxCell><mxCell id="31" value="gRPC(port:8080)" style="points=[[0,0,0],[0.25,0,0],[0.5,0,0],[0.75,0,0],[1,0,0],[1,0.25,0],[1,0.5,0],[1,0.75,0],[1,1,0],[0.75,1,0],[0.5,1,0],[0.25,1,0],[0,1,0],[0,0.75,0],[0,0.5,0],[0,0.25,0]];rounded=1;absoluteArcSize=1;arcSize=2;html=1;gradientColor=none;shadow=0;dashed=0;fontSize=12;fontColor=#9E9E9E;align=center;verticalAlign=middle;spacing=10;spacingTop=-4;fillColor=#EFEBE9;" vertex="1" parent="1"><mxGeometry x="1260" y="513.5" width="120" height="30" as="geometry"/></mxCell><mxCell id="32" value="50051" style="points=[[0,0,0],[0.25,0,0],[0.5,0,0],[0.75,0,0],[1,0,0],[1,0.25,0],[1,0.5,0],[1,0.75,0],[1,1,0],[0.75,1,0],[0.5,1,0],[0.25,1,0],[0,1,0],[0,0.75,0],[0,0.5,0],[0,0.25,0]];rounded=1;absoluteArcSize=1;arcSize=2;html=1;gradientColor=none;shadow=0;dashed=0;fontSize=12;fontColor=#9E9E9E;align=center;verticalAlign=middle;spacing=10;spacingTop=-4;fillColor=#EFEBE9;" vertex="1" parent="1"><mxGeometry x="1460" y="513.5" width="120" height="30" as="geometry"/></mxCell><mxCell id="33" value="" style="edgeStyle=orthogonalEdgeStyle;fontSize=12;html=1;endArrow=blockThin;endFill=1;rounded=0;strokeWidth=2;endSize=4;startSize=4;dashed=0;strokeColor=#4284F3;entryX=0;entryY=0.5;entryDx=0;entryDy=0;entryPerimeter=0;" edge="1" parent="1" source="31" target="32"><mxGeometry width="100" relative="1" as="geometry"><mxPoint x="1110" y="594" as="sourcePoint"/><mxPoint x="1230" y="594" as="targetPoint"/></mxGeometry></mxCell><mxCell id="34" value="VirtualService" style="points=[[0,0,0],[0.25,0,0],[0.5,0,0],[0.75,0,0],[1,0,0],[1,0.25,0],[1,0.5,0],[1,0.75,0],[1,1,0],[0.75,1,0],[0.5,1,0],[0.25,1,0],[0,1,0],[0,0.75,0],[0,0.5,0],[0,0.25,0]];rounded=1;absoluteArcSize=1;arcSize=2;html=1;strokeColor=none;gradientColor=none;shadow=0;dashed=0;fontSize=12;fontColor=#9E9E9E;align=left;verticalAlign=top;spacing=10;spacingTop=-4;fillColor=#FFF8E1;" vertex="1" parent="1"><mxGeometry x="850" y="441" width="280" height="169" as="geometry"/></mxCell><mxCell id="35" value="headers&lt;br&gt;&amp;nbsp; &lt;font color=&quot;#ff0000&quot;&gt;env: env2&lt;/font&gt;&lt;br&gt;route: &lt;br&gt;&amp;nbsp; destination: app-service.env2.svc.cluster.local&lt;br&gt;&amp;nbsp; port: 8080" style="points=[[0,0,0],[0.25,0,0],[0.5,0,0],[0.75,0,0],[1,0,0],[1,0.25,0],[1,0.5,0],[1,0.75,0],[1,1,0],[0.75,1,0],[0.5,1,0],[0.25,1,0],[0,1,0],[0,0.75,0],[0,0.5,0],[0,0.25,0]];rounded=1;absoluteArcSize=1;arcSize=2;html=1;gradientColor=none;shadow=0;dashed=0;fontSize=12;fontColor=#9E9E9E;align=left;verticalAlign=middle;spacing=10;spacingTop=-4;fillColor=#EFEBE9;" vertex="1" parent="1"><mxGeometry x="860" y="480" width="260" height="110" as="geometry"/></mxCell><mxCell id="36" value="" style="edgeStyle=orthogonalEdgeStyle;fontSize=12;html=1;endArrow=blockThin;endFill=1;rounded=0;strokeWidth=2;endSize=4;startSize=4;dashed=0;strokeColor=#4284F3;entryX=0;entryY=0.5;entryDx=0;entryDy=0;entryPerimeter=0;exitX=1;exitY=0.5;exitDx=0;exitDy=0;exitPerimeter=0;" edge="1" parent="1" source="34" target="29"><mxGeometry width="100" relative="1" as="geometry"><mxPoint x="570" y="580" as="sourcePoint"/><mxPoint x="650" y="591" as="targetPoint"/></mxGeometry></mxCell><mxCell id="37" value="env2" style="text;html=1;strokeColor=none;fillColor=none;align=center;verticalAlign=middle;whiteSpace=wrap;rounded=0;" vertex="1" parent="1"><mxGeometry x="1210" y="410" width="40" height="20" as="geometry"/></mxCell><mxCell id="38" value="Desktop" style="strokeColor=#dddddd;shadow=1;strokeWidth=1;rounded=1;absoluteArcSize=1;arcSize=2;labelPosition=center;verticalLabelPosition=middle;align=center;verticalAlign=bottom;spacingLeft=0;fontColor=#999999;fontSize=12;whiteSpace=wrap;spacingBottom=2;" vertex="1" parent="1"><mxGeometry x="10" y="327.5" width="70" height="85" as="geometry"/></mxCell><mxCell id="39" value="" style="dashed=0;connectable=0;html=1;fillColor=#757575;strokeColor=none;shape=mxgraph.gcp2.desktop;part=1;" vertex="1" parent="38"><mxGeometry x="0.5" width="50" height="45" relative="1" as="geometry"><mxPoint x="-25" y="12.5" as="offset"/></mxGeometry></mxCell><mxCell id="40" value="" style="edgeStyle=orthogonalEdgeStyle;fontSize=12;html=1;endArrow=blockThin;endFill=1;rounded=0;strokeWidth=2;endSize=4;startSize=4;dashed=0;strokeColor=#4284F3;entryX=0;entryY=0.5;entryDx=0;entryDy=0;exitX=1;exitY=0.5;exitDx=0;exitDy=0;" edge="1" parent="1" source="38" target="7"><mxGeometry width="100" relative="1" as="geometry"><mxPoint x="50" y="520" as="sourcePoint"/><mxPoint x="150" y="520" as="targetPoint"/></mxGeometry></mxCell><mxCell id="41" value="&lt;font color=&quot;#4284f3&quot;&gt;https&lt;/font&gt;" style="text;html=1;strokeColor=none;fillColor=none;align=center;verticalAlign=middle;whiteSpace=wrap;rounded=0;fontStyle=1" vertex="1" parent="1"><mxGeometry x="330" y="345" width="40" height="20" as="geometry"/></mxCell><mxCell id="42" value="" style="edgeStyle=orthogonalEdgeStyle;fontSize=12;html=1;endArrow=blockThin;endFill=1;rounded=0;strokeWidth=2;endSize=4;startSize=4;dashed=0;strokeColor=#4284F3;entryX=0;entryY=0.5;entryDx=0;entryDy=0;entryPerimeter=0;exitX=1;exitY=0.75;exitDx=0;exitDy=0;exitPerimeter=0;" edge="1" parent="1" source="20" target="34"><mxGeometry width="100" relative="1" as="geometry"><mxPoint x="810" y="340" as="sourcePoint"/><mxPoint x="890" y="211" as="targetPoint"/></mxGeometry></mxCell><mxCell id="43" value="default" style="text;html=1;strokeColor=none;fillColor=none;align=center;verticalAlign=middle;whiteSpace=wrap;rounded=0;" vertex="1" parent="1"><mxGeometry x="570" y="150" width="40" height="20" as="geometry"/></mxCell><mxCell id="44" value="istio-ingressgateway" style="text;html=1;strokeColor=none;fillColor=none;align=center;verticalAlign=middle;whiteSpace=wrap;rounded=0;" vertex="1" parent="1"><mxGeometry x="350" y="261" width="120" height="20" as="geometry"/></mxCell><mxCell id="45" value="&lt;font color=&quot;#4284f3&quot;&gt;https&lt;/font&gt;" style="text;html=1;strokeColor=none;fillColor=none;align=center;verticalAlign=middle;whiteSpace=wrap;rounded=0;fontStyle=1" vertex="1" parent="1"><mxGeometry x="90" y="345" width="40" height="20" as="geometry"/></mxCell></root></mxGraphModel></diagram></mxfile>